HIERARCHY
ROOT SpineBase
{
  OFFSET 0.000000 0.000000 0.000000
  CHANNELS 6 Xposition Yposition Zposition Zrotation Xrotation Yrotation
  JOINT SpineMid
  {
    OFFSET -0.000000 26.131866 0.000000
    CHANNELS 3 Zrotation Xrotation Yrotation
    JOINT SpineShoulder
    {
      OFFSET -0.036513 19.432170 -0.701040
      CHANNELS 3 Zrotation Xrotation Yrotation
      JOINT Neck
      {
        OFFSET -0.032604 6.422999 -0.519708
        CHANNELS 3 Zrotation Xrotation Yrotation
        JOINT Head
        {
          OFFSET 3.136438 10.554808 -0.160136
          CHANNELS 3 Zrotation Xrotation Yrotation
          End Site
          {
            OFFSET 0 0 0
          }
        }
      }
      JOINT ShoulderLeft
      {
        OFFSET -11.236212 -2.036767 -7.349393
        CHANNELS 3 Zrotation Xrotation Yrotation
        JOINT ElbowLeft
        {
          OFFSET -7.981310 -18.109465 -1.032551
          CHANNELS 3 Zrotation Xrotation Yrotation
          JOINT WristLeft
          {
            OFFSET 25.596690 1.913389 -8.290046
            CHANNELS 3 Zrotation Xrotation Yrotation
            JOINT HandLeft
            {
              OFFSET 5.442392 -0.516570 1.020959
              CHANNELS 3 Zrotation Xrotation Yrotation
              JOINT HandTipLeft
              {
                OFFSET 3.021061 2.009929 -1.592270
                CHANNELS 3 Zrotation Xrotation Yrotation
                End Site
                {
                  OFFSET 0 0 0
                }
              }
              JOINT ThumbLeft
              {
                OFFSET 1.408888 -4.023251 1.613102
                CHANNELS 3 Zrotation Xrotation Yrotation
                End Site
                {
                  OFFSET 0 0 0
                }
              }
            }
          }
        }
      }
      JOINT ShoulderRight
      {
        OFFSET 10.461380 -3.439007 4.105127
        CHANNELS 3 Zrotation Xrotation Yrotation
        JOINT ElbowRight
        {
          OFFSET 2.846860 -15.318814 -16.503655
          CHANNELS 3 Zrotation Xrotation Yrotation
          JOINT WristRight
          {
            OFFSET -5.841501 7.899277 -18.767226
            CHANNELS 3 Zrotation Xrotation Yrotation
            JOINT HandRight
            {
              OFFSET 1.498541 1.102706 -5.285861
              CHANNELS 3 Zrotation Xrotation Yrotation
              JOINT HandTipRight
              {
                OFFSET -2.671702 0.167890 -2.271669
                CHANNELS 3 Zrotation Xrotation Yrotation
                End Site
                {
                  OFFSET 0 0 0
                }
              }
              JOINT ThumbRight
              {
                OFFSET -3.346552 -0.062193 -2.139449
                CHANNELS 3 Zrotation Xrotation Yrotation
                End Site
                {
                  OFFSET 0 0 0
                }
              }
            }
          }
        }
      }
    }
  }
  JOINT HipLeft
  {
    OFFSET -5.236179 0.875425 -5.417840
    CHANNELS 3 Zrotation Xrotation Yrotation
    JOINT KneeLeft
    {
      OFFSET -5.480144 -33.945606 2.380991
      CHANNELS 3 Zrotation Xrotation Yrotation
      JOINT AnkleLeft
      {
        OFFSET -2.813337 -31.864385 9.538021
        CHANNELS 3 Zrotation Xrotation Yrotation
        JOINT FootLeft
        {
          OFFSET 1.888762 -5.105012 -9.628181
          CHANNELS 3 Zrotation Xrotation Yrotation
          End Site
          {
            OFFSET 0 0 0
          }
        }
      }
    }
  }
  JOINT HipRight
  {
    OFFSET 5.029304 0.145404 -0.779451
    CHANNELS 3 Zrotation Xrotation Yrotation
    JOINT KneeRight
    {
      OFFSET -1.379457 -30.963404 5.667576
      CHANNELS 3 Zrotation Xrotation Yrotation
      JOINT AnkleRight
      {
        OFFSET -5.095065 -34.950956 9.283414
        CHANNELS 3 Zrotation Xrotation Yrotation
        JOINT FootRight
        {
          OFFSET -1.394908 -4.651324 -7.983251
          CHANNELS 3 Zrotation Xrotation Yrotation
          End Site
          {
            OFFSET 0 0 0
          }
        }
      }
    }
  }
}
MOTION
Frames: 14
Frame Time: 0.033333
14.430951 72.059865 371.458173 0.430555 -1.297383 -34.192883 0.319953 0.073010 34.218428 0.000342 0.016237 0.028439 5.146755 -2.928061 1.431869 0.000000 0.000000 0.000000 27.510246 14.287814 -12.618148 3.573708 -3.517234 7.391319 20.246671 -1.189047 34.715535 -36.349307 22.097918 -33.727197 0.000000 0.000000 0.000000 0.000000 0.000000 0.000000 2.114962 -43.541906 -19.247930 -38.005157 45.707050 27.710568 14.224159 3.504000 59.794040 5.799919 38.280472 -108.574244 0.000000 0.000000 0.000000 0.000000 0.000000 0.000000 -2.126866 -1.826817 34.291332 0.930776 0.819796 -0.453506 8.304700 -3.583058 -14.759954 0.000000 0.000000 0.000000 -3.928507 -0.674706 33.608699 4.028679 -1.063036 0.946767 5.764801 -0.095010 -11.728410 0.000000 0.000000 0.000000
14.377578 72.075638 371.424945 0.353862 -1.272839 -34.307758 0.367571 0.095077 34.330823 -0.020152 0.009072 0.025970 5.159630 -3.075916 1.484168 0.000000 0.000000 0.000000 27.760081 14.351292 -12.723270 4.039684 -3.422670 7.002632 20.716966 1.115249 38.587735 -37.212300 20.567539 -31.544337 0.000000 0.000000 0.000000 0.000000 0.000000 0.000000 2.372768 -43.278749 -19.296046 -36.593934 45.195418 28.434698 13.373395 4.130172 57.962260 4.303926 35.855341 -108.654496 0.000000 0.000000 0.000000 0.000000 0.000000 0.000000 -1.932166 -1.760861 34.419128 1.142882 0.699250 -0.360630 7.854736 -0.359796 -12.997250 0.000000 0.000000 0.000000 -3.768835 -0.625040 33.740444 3.929243 -1.076460 0.930076 5.793319 4.120096 -12.459732 0.000000 0.000000 0.000000
14.310829 72.085021 371.383905 0.269605 -1.234957 -34.404678 0.399475 0.121738 34.424694 -0.035701 0.002538 0.023102 5.186041 -3.295654 1.555778 0.000000 0.000000 0.000000 27.900846 14.335405 -12.737750 4.603645 -3.260606 6.540867 18.757613 1.761880 40.481184 -36.172640 19.554625 -31.628494 0.000000 0.000000 0.000000 0.000000 0.000000 0.000000 2.695093 -43.126113 -19.457758 -35.799513 44.537991 28.782572 11.186316 9.736026 55.170233 -0.392463 31.977925 -105.826805 0.000000 0.000000 0.000000 0.000000 0.000000 0.000000 -1.688191 -1.735456 34.537136 1.260659 0.575589 -0.295097 8.056677 3.101535 -12.290129 0.000000 0.000000 0.000000 -3.665554 -0.543513 33.844772 3.938097 -1.218334 0.954958 8.940043 1.808790 -17.775822 0.000000 0.000000 0.000000
14.254393 72.096992 371.364801 0.202774 -1.232031 -34.519556 0.430844 0.142086 34.537209 -0.046920 -0.011887 0.021004 5.192822 -3.383647 1.591959 0.000000 0.000000 0.000000 27.872200 14.268166 -12.659736 5.224291 -2.958043 6.228552 14.970992 0.939440 40.653976 -31.798933 19.099112 -34.931992 0.000000 0.000000 0.000000 0.000000 0.000000 0.000000 3.006406 -43.079348 -19.741101 -35.922011 44.092911 29.289345 9.380059 15.607987 52.327809 -6.940776 26.015502 -100.099882 0.000000 0.000000 0.000000 0.000000 0.000000 0.000000 -1.514310 -1.718124 34.670608 1.222682 0.434822 -0.281512 7.682590 -1.245393 -14.086985 0.000000 0.000000 0.000000 -3.612178 -0.411476 33.968836 3.925829 -1.345136 0.969965 10.275378 -0.208760 -20.073779 0.000000 0.000000 0.000000
14.192334 72.105294 371.337489 0.149993 -1.238327 -34.604431 0.430877 0.158951 34.619709 -0.049514 -0.030455 0.018893 5.123731 -3.392521 1.597064 0.000000 0.000000 0.000000 27.600778 14.202935 -12.513104 5.380827 -2.919438 5.995646 12.081048 0.156453 40.286127 -29.261427 19.558428 -38.977825 0.000000 0.000000 0.000000 0.000000 0.000000 0.000000 3.272202 -43.267261 -20.125555 -36.926935 43.939112 29.919204 8.001927 21.518895 48.617630 -15.034539 16.102544 -91.813001 0.000000 0.000000 0.000000 0.000000 0.000000 0.000000 -1.300422 -1.731226 34.786012 1.337312 0.444716 -0.236170 7.133893 -2.388053 -14.284777 0.000000 0.000000 0.000000 -3.617849 -0.264795 34.057315 3.981188 -1.534905 1.009001 10.865098 -2.137214 -21.192462 0.000000 0.000000 0.000000
14.132664 72.092536 371.303429 0.125673 -1.245687 -34.567426 0.394835 0.166361 34.580912 -0.042098 -0.046681 0.017211 4.993347 -3.364853 1.583040 0.000000 0.000000 0.000000 27.180926 14.127818 -12.323010 5.855509 -2.739537 5.875986 8.901256 -1.020416 39.233096 -26.478619 19.493745 -41.477138 0.000000 0.000000 0.000000 0.000000 0.000000 0.000000 3.591975 -43.279786 -20.443066 -38.649251 43.894477 30.351792 7.776643 24.170148 45.113031 -20.087434 7.096026 -84.785032 0.000000 0.000000 0.000000 0.000000 0.000000 0.000000 -1.065917 -1.753748 34.787017 1.468539 0.567347 -0.189251 6.320946 -3.892809 -14.263231 0.000000 0.000000 0.000000 -3.496837 -0.276627 34.035975 3.923235 -1.399763 0.984301 9.876866 -6.707605 -18.876807 0.000000 0.000000 0.000000
14.070454 72.086749 371.265296 0.107078 -1.245696 -34.520293 0.372035 0.187274 34.532713 -0.011054 -0.060750 0.018308 4.718259 -3.336821 1.558549 0.000000 0.000000 0.000000 27.280319 13.993011 -12.254414 5.837869 -2.540840 6.011467 8.928058 -1.386333 38.503077 -28.878119 19.493394 -39.563436 0.000000 0.000000 0.000000 0.000000 0.000000 0.000000 3.945060 -43.153122 -20.753042 -41.898776 44.128368 30.671838 4.664710 35.175346 47.202741 -30.694824 -13.248466 -80.748070 0.000000 0.000000 0.000000 0.000000 0.000000 0.000000 -0.951273 -1.718330 34.753163 1.457075 0.607932 -0.177660 3.308558 -19.007391 -19.525603 0.000000 0.000000 0.000000 -3.236059 -0.560097 34.004992 3.904714 -0.744875 0.908369 6.287785 -13.093200 -10.397658 0.000000 0.000000 0.000000
14.017123 72.082348 371.231878 0.109940 -1.261512 -34.456951 0.304610 0.187167 34.468189 -0.011685 -0.062874 0.015943 4.589173 -3.316666 1.543133 0.000000 0.000000 0.000000 27.203357 13.942498 -12.180268 5.944855 -2.449886 6.121875 7.819713 -1.446166 38.750286 -29.233994 18.571341 -38.448810 0.000000 0.000000 0.000000 0.000000 0.000000 0.000000 4.356308 -42.707407 -20.830742 -46.138813 44.673084 30.357974 8.200394 18.557391 67.473305 -23.339096 -0.890271 -87.585985 0.000000 0.000000 0.000000 0.000000 0.000000 0.000000 -0.868630 -1.705913 34.704937 1.306550 0.787306 -0.221540 -0.388560 -30.513644 -23.853293 0.000000 0.000000 0.000000 -3.216485 -0.128216 33.984226 3.509874 -1.268865 0.879605 2.850824 -20.632330 0.424217 0.000000 0.000000 0.000000
13.986444 72.080034 371.210455 0.133223 -1.287480 -34.340350 0.192045 0.158539 34.350141 -0.046722 -0.047340 0.009668 4.716795 -3.280498 1.531436 0.000000 0.000000 0.000000 27.166878 13.823208 -12.043596 5.841790 -2.228914 6.861276 7.494269 -2.301756 36.827040 -29.239189 18.340748 -37.441920 0.000000 0.000000 0.000000 0.000000 0.000000 0.000000 4.140199 -43.000161 -20.600136 -46.920776 45.433196 30.016715 1.612144 29.327840 71.122795 -34.052864 -13.170858 -89.030074 0.000000 0.000000 0.000000 0.000000 0.000000 0.000000 -0.882599 -1.688328 34.591864 1.074201 1.007517 -0.298884 -4.473629 -38.663807 -24.846900 0.000000 0.000000 0.000000 -3.240318 0.088321 33.888044 3.345850 -1.534439 0.873361 2.129151 -19.163635 1.462561 0.000000 0.000000 0.000000
13.940536 72.080539 371.188716 0.099984 -1.299030 -34.253713 0.100500 0.127455 34.259777 -0.111784 -0.030341 -0.000517 5.107492 -3.215813 1.521627 0.000000 0.000000 0.000000 27.321340 13.621228 -11.872262 5.941975 -1.967812 6.858844 6.688331 -2.110440 37.509010 -29.778947 17.184720 -35.949324 0.000000 0.000000 0.000000 0.000000 0.000000 0.000000 3.386017 -44.010378 -20.161712 -47.347523 47.186806 30.239621 5.779046 23.442946 66.595730 -28.828749 -9.833525 -85.089744 0.000000 0.000000 0.000000 0.000000 0.000000 0.000000 -0.759861 -1.665955 34.521643 0.598560 1.429877 -0.449116 -6.586130 -43.733708 -28.097253 0.000000 0.000000 0.000000 -3.202724 0.176767 33.809919 3.326698 -1.602216 0.879814 2.530360 -12.903794 -2.217352 0.000000 0.000000 0.000000
13.908091 72.083949 371.181847 0.061663 -1.319239 -34.266583 -0.007454 0.099809 34.268389 -0.173624 -0.020973 -0.011222 5.677200 -3.138791 1.515666 0.000000 0.000000 0.000000 27.570671 13.399181 -11.705467 6.271610 -1.826497 5.775949 6.128280 -0.189347 42.151671 -30.891716 16.902304 -37.630657 0.000000 0.000000 0.000000 0.000000 0.000000 0.000000 2.310696 -45.275037 -19.545818 -46.452467 49.326039 30.854078 11.626690 12.369304 58.813902 -20.182929 -1.448539 -78.280421 0.000000 0.000000 0.000000 0.000000 0.000000 0.000000 -0.686974 -1.622510 34.541663 -0.122876 1.912471 -0.669768 -24.546511 -60.612725 -51.427913 0.000000 0.000000 0.000000 -3.304459 0.265089 33.808270 3.511666 -1.799177 0.947880 4.622736 -3.407558 -9.330295 0.000000 0.000000 0.000000
13.889496 72.090888 371.186200 0.051220 -1.345208 -34.385124 -0.110716 0.085323 34.384267 -0.235777 -0.005889 -0.020123 6.079138 -3.154661 1.532837 0.000000 0.000000 0.000000 27.636226 13.107354 -11.452321 6.646590 -1.599223 4.818719 4.079684 1.399081 46.835145 -31.156472 15.627406 -38.741629 0.000000 0.000000 0.000000 0.000000 0.000000 0.000000 1.009786 -46.597433 -18.788880 -46.425944 51.961386 31.127316 15.438959 2.612827 55.213610 -14.177253 7.208749 -73.859067 0.000000 0.000000 0.000000 0.000000 0.000000 0.000000 -0.633752 -1.604511 34.669647 0.152763 2.018619 -0.600204 -30.080630 -62.214197 -60.311563 0.000000 0.000000 0.000000 -3.551011 0.287711 33.888626 3.912658 -2.037678 1.071742 8.344015 6.345257 -17.861975 0.000000 0.000000 0.000000
13.895750 72.099536 371.212313 0.027426 -1.383580 -34.531594 -0.271577 0.046651 34.526008 -0.326193 0.011698 -0.034286 6.934303 -3.149155 1.562490 0.000000 0.000000 0.000000 27.705891 12.844158 -11.187903 7.053184 -1.347179 4.144612 1.776869 2.382574 50.601749 -30.334303 14.289994 -40.122343 0.000000 0.000000 0.000000 0.000000 0.000000 0.000000 -0.815764 -48.707887 -17.970108 -43.799441 54.507372 29.505651 14.721381 3.030992 49.128914 -13.438674 14.363674 -71.566303 0.000000 0.000000 0.000000 0.000000 0.000000 0.000000 -0.638844 -1.590959 34.817836 0.107717 2.054325 -0.621064 -21.068252 -58.058240 -54.634895 0.000000 0.000000 0.000000 -3.895172 0.300764 33.978979 4.490558 -2.352121 1.249118 13.103256 7.189640 -26.582375 0.000000 0.000000 0.000000
13.933581 72.114689 371.264278 0.011966 -1.391627 -34.500370 -0.452618 0.105177 34.491858 -0.351441 0.047434 -0.041546 7.794580 -3.694305 1.757457 0.000000 0.000000 0.000000 27.531589 12.387375 -10.787695 7.490354 -0.982820 3.676117 -0.332389 2.654655 52.813846 -28.026937 12.667880 -41.231432 0.000000 0.000000 0.000000 0.000000 0.000000 0.000000 -1.352417 -48.403423 -16.699562 -42.357743 56.311042 28.906397 15.845257 -0.646193 49.688045 -10.966593 23.554082 -75.183021 0.000000 0.000000 0.000000 0.000000 0.000000 0.000000 -0.727189 -1.587578 34.772935 0.066313 1.927968 -0.636712 -21.190602 -58.044387 -56.390504 0.000000 0.000000 0.000000 -4.123981 0.264119 33.904471 4.894487 -2.515202 1.365834 15.460495 10.975492 -30.820483 0.000000 0.000000 0.000000
